<svg xmlns="http://www.w3.org/2000/svg" viewBox="0 0 880 208" width="880" height="208" role="img" aria-labelledby="pulse-title pulse-desc">
  <title id="pulse-title">Kavya Jain's 52-week GitHub build pulse</title><desc id="pulse-desc">A single-colour signal line showing 305 public contributions across 24 active weeks. The strongest week contains 57 contributions.</desc>
  <style>text{font-family:ui-sans-serif,-apple-system,BlinkMacSystemFont,"Segoe UI",Helvetica,Arial,sans-serif;fill:#172220}.mono{font-family:ui-monospace,SFMono-Regular,Menlo,Consolas,monospace}.label{font-size:9px;font-weight:700;letter-spacing:.14em;fill:#5f6f6b}.metric{font-size:22px;font-weight:750;letter-spacing:-.03em}.unit{font-size:9px;font-weight:700;letter-spacing:.1em;fill:#5f6f6b}.axis{font-size:8px;font-weight:700;letter-spacing:.08em;fill:#5f6f6b}.trace{fill:none;stroke:#007e70;stroke-width:2.4;stroke-linecap:round;stroke-linejoin:round;stroke-dasharray:1800;stroke-dashoffset:1800;animation:draw 1.7s cubic-bezier(.2,.75,.25,1) .15s forwards}.signal-dot{fill:#007e70;opacity:0;animation:appear .3s ease-out 1.55s forwards}.d1,.d5{animation-delay:1.62s}.d2,.d6{animation-delay:1.69s}.d3,.d7{animation-delay:1.76s}@keyframes draw{to{stroke-dashoffset:0}}@keyframes appear{to{opacity:1}}@media (prefers-reduced-motion:reduce){.trace{animation:none;stroke-dashoffset:0}.signal-dot{animation:none;opacity:1}}</style>
  <rect x=".5" y=".5" width="879" height="207" rx="7" fill="#fcfdfb" stroke="#d4dfdc"/><text x="24" y="22" class="label mono">BUILD PULSE / LAST 52 WEEKS</text><text x="856" y="20" text-anchor="end" class="axis mono">REFRESHED 29 AUG 2026</text>
  <text x="24" y="55" class="metric">305</text><text x="74" y="55" class="unit mono">CONTRIBUTIONS</text><text x="445" y="46" text-anchor="middle" class="metric">24</text><text x="445" y="61" text-anchor="middle" class="unit mono">ACTIVE WEEKS</text><text x="856" y="46" text-anchor="end" class="metric">7</text><text x="856" y="61" text-anchor="end" class="unit mono">WEEK RUN</text>
  <path d="M24 96H856M24 131H856M24 166H856" stroke="#e7efec"/><path d="M24.0 166.0 C32.2 166.0,32.2 166.0,40.3 166.0 C48.5 166.0,48.5 166.0,56.6 166.0 C64.8 166.0,64.8 166.0,72.9 166.0 C81.1 166.0,81.1 166.0,89.3 166.0 C97.4 166.0,97.4 166.0,105.6 166.0 C113.7 166.0,113.7 166.0,121.9 166.0 C130.0 166.0,130.0 135.5,138.2 135.5 C146.4 135.5,146.4 166.0,154.5 166.0 C162.7 166.0,162.7 166.0,170.8 166.0 C179.0 166.0,179.0 166.0,187.1 166.0 C195.3 166.0,195.3 166.0,203.5 166.0 C211.6 166.0,211.6 166.0,219.8 166.0 C227.9 166.0,227.9 166.0,236.1 166.0 C244.2 166.0,244.2 122.9,252.4 122.9 C260.5 122.9,260.5 166.0,268.7 166.0 C276.9 166.0,276.9 166.0,285.0 166.0 C293.2 166.0,293.2 166.0,301.3 166.0 C309.5 166.0,309.5 166.0,317.6 166.0 C325.8 166.0,325.8 166.0,334.0 166.0 C342.1 166.0,342.1 153.5,350.3 153.5 C358.4 153.5,358.4 166.0,366.6 166.0 C374.7 166.0,374.7 166.0,382.9 166.0 C391.1 166.0,391.1 105.0,399.2 105.0 C407.4 105.0,407.4 141.1,415.5 141.1 C423.7 141.1,423.7 128.6,431.8 128.6 C440.0 128.6,440.0 166.0,448.2 166.0 C456.3 166.0,456.3 128.6,464.5 128.6 C472.6 128.6,472.6 135.5,480.8 135.5 C488.9 135.5,488.9 166.0,497.1 166.0 C505.3 166.0,505.3 166.0,513.4 166.0 C521.6 166.0,521.6 128.6,529.7 128.6 C537.9 128.6,537.9 148.4,546.0 148.4 C554.2 148.4,554.2 148.4,562.4 148.4 C570.5 148.4,570.5 166.0,578.7 166.0 C586.8 166.0,586.8 166.0,595.0 166.0 C603.1 166.0,603.1 166.0,611.3 166.0 C619.5 166.0,619.5 133.1,627.6 133.1 C635.8 133.1,635.8 121.1,643.9 121.1 C652.1 121.1,652.1 166.0,660.2 166.0 C668.4 166.0,668.4 153.5,676.5 153.5 C684.7 153.5,684.7 126.6,692.9 126.6 C701.0 126.6,701.0 148.4,709.2 148.4 C717.3 148.4,717.3 141.1,725.5 141.1 C733.6 141.1,733.6 166.0,741.8 166.0 C750.0 166.0,750.0 111.7,758.1 111.7 C766.3 111.7,766.3 117.8,774.4 117.8 C782.6 117.8,782.6 148.4,790.7 148.4 C798.9 148.4,798.9 108.9,807.1 108.9 C815.2 108.9,815.2 83.4,823.4 83.4 C831.5 83.4,831.5 102.5,839.7 102.5 C847.8 102.5,847.8 72.0,856.0 72.0 L856 166 L24 166 Z" fill="#007e70" opacity=".07"/><path class="trace" d="M24.0 166.0 C32.2 166.0,32.2 166.0,40.3 166.0 C48.5 166.0,48.5 166.0,56.6 166.0 C64.8 166.0,64.8 166.0,72.9 166.0 C81.1 166.0,81.1 166.0,89.3 166.0 C97.4 166.0,97.4 166.0,105.6 166.0 C113.7 166.0,113.7 166.0,121.9 166.0 C130.0 166.0,130.0 135.5,138.2 135.5 C146.4 135.5,146.4 166.0,154.5 166.0 C162.7 166.0,162.7 166.0,170.8 166.0 C179.0 166.0,179.0 166.0,187.1 166.0 C195.3 166.0,195.3 166.0,203.5 166.0 C211.6 166.0,211.6 166.0,219.8 166.0 C227.9 166.0,227.9 166.0,236.1 166.0 C244.2 166.0,244.2 122.9,252.4 122.9 C260.5 122.9,260.5 166.0,268.7 166.0 C276.9 166.0,276.9 166.0,285.0 166.0 C293.2 166.0,293.2 166.0,301.3 166.0 C309.5 166.0,309.5 166.0,317.6 166.0 C325.8 166.0,325.8 166.0,334.0 166.0 C342.1 166.0,342.1 153.5,350.3 153.5 C358.4 153.5,358.4 166.0,366.6 166.0 C374.7 166.0,374.7 166.0,382.9 166.0 C391.1 166.0,391.1 105.0,399.2 105.0 C407.4 105.0,407.4 141.1,415.5 141.1 C423.7 141.1,423.7 128.6,431.8 128.6 C440.0 128.6,440.0 166.0,448.2 166.0 C456.3 166.0,456.3 128.6,464.5 128.6 C472.6 128.6,472.6 135.5,480.8 135.5 C488.9 135.5,488.9 166.0,497.1 166.0 C505.3 166.0,505.3 166.0,513.4 166.0 C521.6 166.0,521.6 128.6,529.7 128.6 C537.9 128.6,537.9 148.4,546.0 148.4 C554.2 148.4,554.2 148.4,562.4 148.4 C570.5 148.4,570.5 166.0,578.7 166.0 C586.8 166.0,586.8 166.0,595.0 166.0 C603.1 166.0,603.1 166.0,611.3 166.0 C619.5 166.0,619.5 133.1,627.6 133.1 C635.8 133.1,635.8 121.1,643.9 121.1 C652.1 121.1,652.1 166.0,660.2 166.0 C668.4 166.0,668.4 153.5,676.5 153.5 C684.7 153.5,684.7 126.6,692.9 126.6 C701.0 126.6,701.0 148.4,709.2 148.4 C717.3 148.4,717.3 141.1,725.5 141.1 C733.6 141.1,733.6 166.0,741.8 166.0 C750.0 166.0,750.0 111.7,758.1 111.7 C766.3 111.7,766.3 117.8,774.4 117.8 C782.6 117.8,782.6 148.4,790.7 148.4 C798.9 148.4,798.9 108.9,807.1 108.9 C815.2 108.9,815.2 83.4,823.4 83.4 C831.5 83.4,831.5 102.5,839.7 102.5 C847.8 102.5,847.8 72.0,856.0 72.0"/><circle class="signal-dot d0" cx="138.2" cy="135.5" r="2.7"/><circle class="signal-dot d1" cx="252.4" cy="122.9" r="2.7"/><circle class="signal-dot d2" cx="350.3" cy="153.5" r="2.7"/><circle class="signal-dot d3" cx="399.2" cy="105.0" r="2.7"/><circle class="signal-dot d4" cx="415.5" cy="141.1" r="2.7"/><circle class="signal-dot d5" cx="431.8" cy="128.6" r="2.7"/><circle class="signal-dot d6" cx="464.5" cy="128.6" r="2.7"/><circle class="signal-dot d7" cx="480.8" cy="135.5" r="2.7"/><circle class="signal-dot d0" cx="529.7" cy="128.6" r="2.7"/><circle class="signal-dot d1" cx="546.0" cy="148.4" r="2.7"/><circle class="signal-dot d2" cx="562.4" cy="148.4" r="2.7"/><circle class="signal-dot d3" cx="627.6" cy="133.1" r="2.7"/><circle class="signal-dot d4" cx="643.9" cy="121.1" r="2.7"/><circle class="signal-dot d5" cx="676.5" cy="153.5" r="2.7"/><circle class="signal-dot d6" cx="692.9" cy="126.6" r="2.7"/><circle class="signal-dot d7" cx="709.2" cy="148.4" r="2.7"/><circle class="signal-dot d0" cx="725.5" cy="141.1" r="2.7"/><circle class="signal-dot d1" cx="758.1" cy="111.7" r="2.7"/><circle class="signal-dot d2" cx="774.4" cy="117.8" r="2.7"/><circle class="signal-dot d3" cx="790.7" cy="148.4" r="2.7"/><circle class="signal-dot d4" cx="807.1" cy="108.9" r="2.7"/><circle class="signal-dot d5" cx="823.4" cy="83.4" r="2.7"/><circle class="signal-dot d6" cx="839.7" cy="102.5" r="2.7"/><circle class="signal-dot d7" cx="856.0" cy="72.0" r="2.7"/><text x="24.0" y="190" text-anchor="start" class="axis">AUG 2025</text><text x="236.1" y="190" text-anchor="middle" class="axis">NOV</text><text x="448.2" y="190" text-anchor="middle" class="axis">MAR</text><text x="660.2" y="190" text-anchor="middle" class="axis">MAY</text><text x="856.0" y="190" text-anchor="end" class="axis">AUG</text>
</svg>