<svg xmlns="http://www.w3.org/2000/svg" viewBox="0 0 880 634" width="880" height="634" role="img" aria-labelledby="radar-title radar-desc"><title id="radar-title">Kavya Jain repo-driven engineering range and repository footprint</title><desc id="radar-desc">Two large radar panels. Engineering axes combine configured project relevance with authored commits, recency and language bytes. Repository-footprint axes come directly from GitHub language bytes. They are not proficiency percentages.</desc><style>.title{font-family:ui-monospace,SFMono-Regular,Menlo,Consolas,monospace;font-size:12px;font-weight:750;fill:#f0f6fc;letter-spacing:.1em}.axis{font-family:ui-monospace,SFMono-Regular,Menlo,Consolas,monospace;font-size:10px;font-weight:700;fill:#8b949e;letter-spacing:.04em}.source{font-family:ui-monospace,SFMono-Regular,Menlo,Consolas,monospace;font-size:8.5px;font-weight:700;letter-spacing:.06em}</style><g><rect x=".5" y="0.5" width="879" height="307" rx="7" fill="#0d1117" stroke="#30363d"/><text x="24" y="29" class="title">ENGINEERING RANGE</text><polygon points="440.0,130.0 464.2,144.0 464.2,172.0 440.0,186.0 415.8,172.0 415.8,144.0" fill="none" stroke="#30363d"/><polygon points="440.0,102.0 488.5,130.0 488.5,186.0 440.0,214.0 391.5,186.0 391.5,130.0" fill="none" stroke="#30363d"/><polygon points="440.0,74.0 512.7,116.0 512.7,200.0 440.0,242.0 367.3,200.0 367.3,116.0" fill="none" stroke="#30363d"/><polygon points="440.0,46.0 537.0,102.0 537.0,214.0 440.0,270.0 343.0,214.0 343.0,102.0" fill="none" stroke="#30363d"/><path d="M440.0 158L440.0 46.0" stroke="#30363d"/><path d="M440.0 158L537.0 102.0" stroke="#30363d"/><path d="M440.0 158L537.0 214.0" stroke="#30363d"/><path d="M440.0 158L440.0 270.0" stroke="#30363d"/><path d="M440.0 158L343.0 214.0" stroke="#30363d"/><path d="M440.0 158L343.0 102.0" stroke="#30363d"/><polygon points="440.0,48.2 521.6,110.9 520.3,204.3 440.0,244.5 364.2,201.8 373.7,119.7" fill="#39d353" fill-opacity=".24" stroke="#39d353" stroke-width="2.4"/><g fill="#39d353"><circle cx="440.0" cy="48.2" r="3"/><circle cx="521.6" cy="110.9" r="3"/><circle cx="520.3" cy="204.3" r="3"/><circle cx="440.0" cy="244.5" r="3"/><circle cx="364.2" cy="201.8" r="3"/><circle cx="373.7" cy="119.7" r="3"/></g><text x="440.0" y="19.0" text-anchor="middle" class="axis">PRODUCT</text><text x="570.8" y="90.5" text-anchor="start" class="axis">FRONTEND</text><text x="570.8" y="233.5" text-anchor="start" class="axis">BACKEND</text><text x="440.0" y="305.0" text-anchor="middle" class="axis">DATA</text><text x="309.2" y="233.5" text-anchor="end" class="axis">RELIABILITY</text><text x="309.2" y="90.5" text-anchor="end" class="axis">AI FLOW</text><text x="24" y="289" class="source" fill="#8b949e">REPO-DRIVEN SIGNAL · NOT SELF-RATING</text></g><g><rect x=".5" y="326.5" width="879" height="307" rx="7" fill="#0d1117" stroke="#30363d"/><text x="24" y="355" class="title">REPOSITORY FOOTPRINT</text><polygon points="440.0,456.0 464.2,470.0 464.2,498.0 440.0,512.0 415.8,498.0 415.8,470.0" fill="none" stroke="#30363d"/><polygon points="440.0,428.0 488.5,456.0 488.5,512.0 440.0,540.0 391.5,512.0 391.5,456.0" fill="none" stroke="#30363d"/><polygon points="440.0,400.0 512.7,442.0 512.7,526.0 440.0,568.0 367.3,526.0 367.3,442.0" fill="none" stroke="#30363d"/><polygon points="440.0,372.0 537.0,428.0 537.0,540.0 440.0,596.0 343.0,540.0 343.0,428.0" fill="none" stroke="#30363d"/><path d="M440.0 484L440.0 372.0" stroke="#30363d"/><path d="M440.0 484L537.0 428.0" stroke="#30363d"/><path d="M440.0 484L537.0 540.0" stroke="#30363d"/><path d="M440.0 484L440.0 596.0" stroke="#30363d"/><path d="M440.0 484L343.0 540.0" stroke="#30363d"/><path d="M440.0 484L343.0 428.0" stroke="#30363d"/><polygon points="440.0,374.2 504.8,446.6 496.2,516.4 440.0,529.9 402.2,505.8 404.1,463.3" fill="#39d353" fill-opacity=".24" stroke="#39d353" stroke-width="2.4"/><g fill="#39d353"><circle cx="440.0" cy="374.2" r="3"/><circle cx="504.8" cy="446.6" r="3"/><circle cx="496.2" cy="516.4" r="3"/><circle cx="440.0" cy="529.9" r="3"/><circle cx="402.2" cy="505.8" r="3"/><circle cx="404.1" cy="463.3" r="3"/></g><text x="440.0" y="345.0" text-anchor="middle" class="axis">TYPESCRIPT</text><text x="570.8" y="416.5" text-anchor="start" class="axis">JAVASCRIPT</text><text x="570.8" y="559.5" text-anchor="start" class="axis">CSS</text><text x="440.0" y="631.0" text-anchor="middle" class="axis">HTML</text><text x="309.2" y="559.5" text-anchor="end" class="axis">PYTHON</text><text x="309.2" y="416.5" text-anchor="end" class="axis">PLPGSQL</text><text x="24" y="615" class="source" fill="#8b949e">REPO-DRIVEN SIGNAL · NOT SELF-RATING</text></g></svg>