<svg xmlns="http://www.w3.org/2000/svg" viewBox="0 0 880 297" width="880" height="297" role="img" aria-labelledby="radar-title radar-desc"><title id="radar-title">Kavya Jain repo-driven engineering range</title><desc id="radar-desc">Engineering axes combine configured project relevance with authored commits, recency and language bytes. Language axes come directly from GitHub language bytes. They are not proficiency percentages.</desc><style>.title{font-family:ui-monospace,SFMono-Regular,Menlo,Consolas,monospace;font-size:10px;font-weight:700;fill:#1f2328;letter-spacing:.1em}.axis{font-family:ui-monospace,SFMono-Regular,Menlo,Consolas,monospace;font-size:7.5px;font-weight:650;fill:#59636e;letter-spacing:.05em}.source{font-family:ui-monospace,SFMono-Regular,Menlo,Consolas,monospace;font-size:7px;font-weight:650;letter-spacing:.07em}</style><g><rect x="0.5" y=".5" width="429" height="296" rx="6" fill="#ffffff" stroke="#d0d7de"/><text x="18" y="24" class="title">ENGINEERING RANGE</text><polygon points="215.0,130.5 232.8,140.8 232.8,161.2 215.0,171.5 197.2,161.2 197.2,140.8" fill="none" stroke="#d0d7de"/><polygon points="215.0,110.0 250.5,130.5 250.5,171.5 215.0,192.0 179.5,171.5 179.5,130.5" fill="none" stroke="#d0d7de"/><polygon points="215.0,89.5 268.3,120.2 268.3,181.8 215.0,212.5 161.7,181.8 161.7,120.2" fill="none" stroke="#d0d7de"/><polygon points="215.0,69.0 286.0,110.0 286.0,192.0 215.0,233.0 144.0,192.0 144.0,110.0" fill="none" stroke="#d0d7de"/><path d="M215 151L215.0 69.0" stroke="#d0d7de"/><path d="M215 151L286.0 110.0" stroke="#d0d7de"/><path d="M215 151L286.0 192.0" stroke="#d0d7de"/><path d="M215 151L215.0 233.0" stroke="#d0d7de"/><path d="M215 151L144.0 192.0" stroke="#d0d7de"/><path d="M215 151L144.0 110.0" stroke="#d0d7de"/><polygon points="215.0,70.6 274.7,116.5 273.8,184.9 215.0,214.3 159.5,183.0 166.4,123.0" fill="#1f883d" fill-opacity=".24" stroke="#1f883d" stroke-width="2"/><g fill="#1f883d"><circle cx="215.0" cy="70.6" r="3"/><circle cx="274.7" cy="116.5" r="3"/><circle cx="273.8" cy="184.9" r="3"/><circle cx="215.0" cy="214.3" r="3"/><circle cx="159.5" cy="183.0" r="3"/><circle cx="166.4" cy="123.0" r="3"/></g><text x="215.0" y="54.0" text-anchor="middle" class="axis">PRODUCT</text><text x="306.8" y="104.0" text-anchor="start" class="axis">FRONTEND</text><text x="306.8" y="204.0" text-anchor="start" class="axis">BACKEND</text><text x="215.0" y="254.0" text-anchor="middle" class="axis">DATA</text><text x="123.2" y="204.0" text-anchor="end" class="axis">RELIABILITY</text><text x="123.2" y="104.0" text-anchor="end" class="axis">AI FLOW</text><text x="18" y="281" class="source" fill="#59636e">REPO-DRIVEN SIGNAL · NOT SELF-RATING</text></g><g><rect x="450.5" y=".5" width="429" height="296" rx="6" fill="#ffffff" stroke="#d0d7de"/><text x="468" y="24" class="title">WORKING LANGUAGES</text><polygon points="665.0,130.5 682.8,140.8 682.8,161.2 665.0,171.5 647.2,161.2 647.2,140.8" fill="none" stroke="#d0d7de"/><polygon points="665.0,110.0 700.5,130.5 700.5,171.5 665.0,192.0 629.5,171.5 629.5,130.5" fill="none" stroke="#d0d7de"/><polygon points="665.0,89.5 718.3,120.2 718.3,181.8 665.0,212.5 611.7,181.8 611.7,120.2" fill="none" stroke="#d0d7de"/><polygon points="665.0,69.0 736.0,110.0 736.0,192.0 665.0,233.0 594.0,192.0 594.0,110.0" fill="none" stroke="#d0d7de"/><path d="M665 151L665.0 69.0" stroke="#d0d7de"/><path d="M665 151L736.0 110.0" stroke="#d0d7de"/><path d="M665 151L736.0 192.0" stroke="#d0d7de"/><path d="M665 151L665.0 233.0" stroke="#d0d7de"/><path d="M665 151L594.0 192.0" stroke="#d0d7de"/><path d="M665 151L594.0 110.0" stroke="#d0d7de"/><polygon points="665.0,70.6 712.1,123.8 706.1,174.7 665.0,184.6 637.3,167.0 638.7,135.8" fill="#1f883d" fill-opacity=".24" stroke="#1f883d" stroke-width="2"/><g fill="#1f883d"><circle cx="665.0" cy="70.6" r="3"/><circle cx="712.1" cy="123.8" r="3"/><circle cx="706.1" cy="174.7" r="3"/><circle cx="665.0" cy="184.6" r="3"/><circle cx="637.3" cy="167.0" r="3"/><circle cx="638.7" cy="135.8" r="3"/></g><text x="665.0" y="54.0" text-anchor="middle" class="axis">TYPESCRIPT</text><text x="756.8" y="104.0" text-anchor="start" class="axis">JAVASCRIPT</text><text x="756.8" y="204.0" text-anchor="start" class="axis">CSS</text><text x="665.0" y="254.0" text-anchor="middle" class="axis">HTML</text><text x="573.2" y="204.0" text-anchor="end" class="axis">PYTHON</text><text x="573.2" y="104.0" text-anchor="end" class="axis">PLPGSQL</text><text x="468" y="281" class="source" fill="#59636e">REPO-DRIVEN SIGNAL · NOT SELF-RATING</text></g></svg>