<svg xmlns="http://www.w3.org/2000/svg" viewBox="0 0 440 634" width="440" height="634" role="img" aria-labelledby="radar-title radar-desc"><title id="radar-title">Kavya Jain repo-driven engineering range and repository footprint</title><desc id="radar-desc">Two large radar panels. Engineering axes combine configured project relevance with authored commits, recency and language bytes. Repository-footprint axes come directly from GitHub language bytes. They are not proficiency percentages.</desc><style>.title{font-family:ui-monospace,SFMono-Regular,Menlo,Consolas,monospace;font-size:12px;font-weight:750;fill:#f0f6fc;letter-spacing:.1em}.axis{font-family:ui-monospace,SFMono-Regular,Menlo,Consolas,monospace;font-size:9.5px;font-weight:700;fill:#8b949e;letter-spacing:.04em}.source{font-family:ui-monospace,SFMono-Regular,Menlo,Consolas,monospace;font-size:8.5px;font-weight:700;letter-spacing:.06em}</style><g><rect x=".5" y="0.5" width="439" height="307" rx="7" fill="#0d1117" stroke="#30363d"/><text x="16" y="29" class="title">ENGINEERING RANGE</text><polygon points="220.0,131.8 242.7,144.9 242.7,171.1 220.0,184.2 197.3,171.1 197.3,144.9" fill="none" stroke="#30363d"/><polygon points="220.0,105.5 265.5,131.8 265.5,184.2 220.0,210.5 174.5,184.3 174.5,131.8" fill="none" stroke="#30363d"/><polygon points="220.0,79.2 288.2,118.6 288.2,197.4 220.0,236.8 151.8,197.4 151.8,118.6" fill="none" stroke="#30363d"/><polygon points="220.0,53.0 310.9,105.5 310.9,210.5 220.0,263.0 129.1,210.5 129.1,105.5" fill="none" stroke="#30363d"/><path d="M220.0 158L220.0 53.0" stroke="#30363d"/><path d="M220.0 158L310.9 105.5" stroke="#30363d"/><path d="M220.0 158L310.9 210.5" stroke="#30363d"/><path d="M220.0 158L220.0 263.0" stroke="#30363d"/><path d="M220.0 158L129.1 210.5" stroke="#30363d"/><path d="M220.0 158L129.1 105.5" stroke="#30363d"/><polygon points="220.0,55.1 296.5,113.9 295.2,201.4 220.0,239.1 148.9,199.0 157.8,122.1" fill="#39d353" fill-opacity=".24" stroke="#39d353" stroke-width="2.4"/><g fill="#39d353"><circle cx="220.0" cy="55.1" r="3"/><circle cx="296.5" cy="113.9" r="3"/><circle cx="295.2" cy="201.4" r="3"/><circle cx="220.0" cy="239.1" r="3"/><circle cx="148.9" cy="199.0" r="3"/><circle cx="157.8" cy="122.1" r="3"/></g><text x="220.0" y="26.0" text-anchor="middle" class="axis">PRODUCT</text><text x="344.7" y="94.0" text-anchor="start" class="axis">FRONTEND</text><text x="344.7" y="230.0" text-anchor="start" class="axis">BACKEND</text><text x="220.0" y="298.0" text-anchor="middle" class="axis">DATA</text><text x="95.3" y="230.0" text-anchor="end" class="axis">RELIABILITY</text><text x="95.3" y="94.0" text-anchor="end" class="axis">AI FLOW</text><text x="16" y="289" class="source" fill="#8b949e">REPO-DRIVEN SIGNAL · NOT SELF-RATING</text></g><g><rect x=".5" y="326.5" width="439" height="307" rx="7" fill="#0d1117" stroke="#30363d"/><text x="16" y="355" class="title">REPOSITORY FOOTPRINT</text><polygon points="220.0,457.8 242.7,470.9 242.7,497.1 220.0,510.2 197.3,497.1 197.3,470.9" fill="none" stroke="#30363d"/><polygon points="220.0,431.5 265.5,457.8 265.5,510.2 220.0,536.5 174.5,510.2 174.5,457.8" fill="none" stroke="#30363d"/><polygon points="220.0,405.2 288.2,444.6 288.2,523.4 220.0,562.8 151.8,523.4 151.8,444.6" fill="none" stroke="#30363d"/><polygon points="220.0,379.0 310.9,431.5 310.9,536.5 220.0,589.0 129.1,536.5 129.1,431.5" fill="none" stroke="#30363d"/><path d="M220.0 484L220.0 379.0" stroke="#30363d"/><path d="M220.0 484L310.9 431.5" stroke="#30363d"/><path d="M220.0 484L310.9 536.5" stroke="#30363d"/><path d="M220.0 484L220.0 589.0" stroke="#30363d"/><path d="M220.0 484L129.1 536.5" stroke="#30363d"/><path d="M220.0 484L129.1 431.5" stroke="#30363d"/><polygon points="220.0,381.1 280.8,448.9 272.6,514.4 220.0,527.1 184.6,504.4 186.3,464.6" fill="#39d353" fill-opacity=".24" stroke="#39d353" stroke-width="2.4"/><g fill="#39d353"><circle cx="220.0" cy="381.1" r="3"/><circle cx="280.8" cy="448.9" r="3"/><circle cx="272.6" cy="514.4" r="3"/><circle cx="220.0" cy="527.1" r="3"/><circle cx="184.6" cy="504.4" r="3"/><circle cx="186.3" cy="464.6" r="3"/></g><text x="220.0" y="352.0" text-anchor="middle" class="axis">TYPESCRIPT</text><text x="344.7" y="420.0" text-anchor="start" class="axis">JAVASCRIPT</text><text x="344.7" y="556.0" text-anchor="start" class="axis">CSS</text><text x="220.0" y="624.0" text-anchor="middle" class="axis">HTML</text><text x="95.3" y="556.0" text-anchor="end" class="axis">PYTHON</text><text x="95.3" y="420.0" text-anchor="end" class="axis">PLPGSQL</text><text x="16" y="615" class="source" fill="#8b949e">REPO-DRIVEN SIGNAL · NOT SELF-RATING</text></g></svg>