<svg xmlns="http://www.w3.org/2000/svg" viewBox="0 0 440 132" width="440" height="132" role="img" aria-labelledby="mira-title mira-desc">
  <title id="mira-title">MIRA project card</title>
  <desc id="mira-desc">Publish only after evidence clears the gate. Stack: TypeScript · Node.js · React · SQLite · Docker. Kavya's contribution: FRONTEND · PRODUCT FLOW · INTEGRATION.</desc>
  <style>text{font-family:ui-sans-serif,-apple-system,BlinkMacSystemFont,"Segoe UI",Helvetica,Arial,sans-serif;fill:#1f2328}.mono{font-family:ui-monospace,SFMono-Regular,Menlo,Consolas,monospace}.index{font-size:9.5px;font-weight:750;letter-spacing:.14em;fill:#1f883d}.type{font-size:9.5px;font-weight:750;letter-spacing:.1em;fill:#4d5761}.name{font-size:20px;font-weight:780;letter-spacing:-.02em}.summary{font-size:10.5px;fill:#4d5761}.label{font-size:7.6px;font-weight:750;letter-spacing:.11em;fill:#4d5761}.stack{font-size:8.6px;font-weight:700}.contribution{font-size:8px;font-weight:700;letter-spacing:.025em}.proof{font-size:7.5px;font-weight:750;letter-spacing:.055em;fill:#1f883d}</style>
  <rect x=".5" y=".5" width="439" height="131" rx="7" fill="#ffffff" stroke="#d0d7de"/>
  <path d="M16 13H77" stroke="#1f883d" stroke-width="2"/><text x="16" y="28" class="index mono">03</text><text x="47" y="28" class="type mono">AUTONOMOUS CREATOR</text>
  <text x="16" y="55" class="name">MIRA</text><text x="16" y="74" class="summary">Publish only after evidence clears the gate.</text><g fill="none" stroke="#1f883d" stroke-width="1.6" stroke-linecap="round" stroke-linejoin="round"><path d="M348 53a28 22 0 0 1 49-14"/><path d="M398 32l1 12-12-2"/><path d="M405 56a28 22 0 0 1-49 14"/><path d="M355 77l-1-12 12 2"/><circle cx="376" cy="55" r="5" fill="#1f883d" stroke="none"/></g>
  <path d="M16 84H424" stroke="#d0d7de"/><text x="16" y="98" class="label mono">STACK</text><text x="16" y="112" class="stack mono">TypeScript · Node.js · React · SQLite · Docker</text>
  <text x="16" y="125" class="contribution mono">ROLE · FRONTEND · PRODUCT FLOW · INTEGRATION</text>
  <rect x="296" y="96" width="128" height="24" rx="12" fill="#dafbe1"/><text x="360" y="111" text-anchor="middle" class="proof mono">DECISION MEMORY</text>
</svg>
